HIERARCHY
ROOT hip
{
  OFFSET 0 0 0
  CHANNELS 6 Xposition Yposition Zposition Zrotation Yrotation Xrotation
  JOINT abdomen
  {
    OFFSET 0 20.6881 -0.73152
    CHANNELS 3 Zrotation Xrotation Yrotation
    JOINT chest
    {
      OFFSET 0 11.7043 -0.48768
      CHANNELS 3 Zrotation Xrotation Yrotation
      JOINT neck
      {
        OFFSET 0 22.1894 -2.19456
        CHANNELS 3 Zrotation Xrotation Yrotation
        JOINT head
        {
          OFFSET -0.24384 7.07133 1.2192
          CHANNELS 3 Zrotation Xrotation Yrotation
          JOINT leftEye
          {
            OFFSET 4.14528 8.04674 8.04672
            CHANNELS 3 Zrotation Xrotation Yrotation
            End Site
            {
              OFFSET 1 0 0
            }
          }
          JOINT rightEye
          {
            OFFSET -3.6576 8.04674 8.04672
            CHANNELS 3 Zrotation Xrotation Yrotation
            End Site
            {
              OFFSET 1 0 0
            }
          }
        }
      }
      JOINT rCollar
      {
        OFFSET -2.68224 19.2634 -4.8768
        CHANNELS 3 Zrotation Xrotation Yrotation
        JOINT rShldr
        {
          OFFSET -8.77824 -1.95073 1.46304
          CHANNELS 3 Zrotation Xrotation Yrotation
          JOINT rForeArm
          {
            OFFSET -28.1742 -1.7115 0.48768
            CHANNELS 3 Zrotation Xrotation Yrotation
            JOINT rHand
            {
              OFFSET -22.5879 0.773209 7.07136
              CHANNELS 3 Zrotation Xrotation Yrotation
              JOINT rThumb1
              {
                OFFSET -1.2192 -0.487915 3.41376
                CHANNELS 3 Zrotation Xrotation Yrotation
                JOINT rThumb2
                {
                  OFFSET -3.37035 -0.52449 3.41376
                  CHANNELS 3 Zrotation Xrotation Yrotation
                  End Site
                  {
                    OFFSET -1.78271 -1.18214 1.43049
                  }
                }
              }
              JOINT rIndex1
              {
                OFFSET -7.75947 0.938293 5.60832
                CHANNELS 3 Zrotation Xrotation Yrotation
                JOINT rIndex2
                {
                  OFFSET -2.54057 -0.884171 1.56538
                  CHANNELS 3 Zrotation Xrotation Yrotation
                  End Site
                  {
                    OFFSET -1.62519 -0.234802 1.16502
                  }
                }
              }
              JOINT rMid1
              {
                OFFSET -8.24714 1.18213 3.41376
                CHANNELS 3 Zrotation Xrotation Yrotation
                JOINT rMid2
                {
                  OFFSET -3.10165 -0.590103 1.0647
                  CHANNELS 3 Zrotation Xrotation Yrotation
                  End Site
                  {
                    OFFSET -2.48547 -0.328903 0.83742
                  }
                }
              }
              JOINT rRing1
              {
                OFFSET -8.82822 0.546677 1.51678
                CHANNELS 3 Zrotation Xrotation Yrotation
                JOINT rRing2
                {
                  OFFSET -2.60934 -0.819778 -0.0198488
                  CHANNELS 3 Zrotation Xrotation Yrotation
                  End Site
                  {
                    OFFSET -2.33842 -0.294052 0.168128
                  }
                }
              }
              JOINT rPinky1
              {
                OFFSET -8.27202 -0.0477905 -0.4584
                CHANNELS 3 Zrotation Xrotation Yrotation
                JOINT rPinky2
                {
                  OFFSET -1.82734 -0.647385 -0.700984
                  CHANNELS 3 Zrotation Xrotation Yrotation
                  End Site
                  {
                    OFFSET -1.69225 -0.51767 -0.607171
                  }
                }
              }
            }
          }
        }
      }
      JOINT lCollar
      {
        OFFSET 2.68224 19.2634 -4.8768
        CHANNELS 3 Zrotation Xrotation Yrotation
        JOINT lShldr
        {
          OFFSET 8.77824 -1.95073 1.46304
          CHANNELS 3 Zrotation Xrotation Yrotation
          JOINT lForeArm
          {
            OFFSET 28.1742 -1.7115 0.48768
            CHANNELS 3 Zrotation Xrotation Yrotation
            JOINT lHand
            {
              OFFSET 22.5879 0.773209 7.07136
              CHANNELS 3 Zrotation Xrotation Yrotation
              JOINT lThumb1
              {
                OFFSET 1.2192 -0.487915 3.41376
                CHANNELS 3 Zrotation Xrotation Yrotation
                JOINT lThumb2
                {
                  OFFSET 3.37035 -0.52449 3.41376
                  CHANNELS 3 Zrotation Xrotation Yrotation
                  End Site
                  {
                    OFFSET 1.78271 -1.18214 1.43049
                  }
                }
              }
              JOINT lIndex1
              {
                OFFSET 7.75947 0.938293 5.60832
                CHANNELS 3 Zrotation Xrotation Yrotation
                JOINT lIndex2
                {
                  OFFSET 2.54057 -0.884171 1.56538
                  CHANNELS 3 Zrotation Xrotation Yrotation
                  End Site
                  {
                    OFFSET 1.62519 -0.234802 1.16502
                  }
                }
              }
              JOINT lMid1
              {
                OFFSET 8.24714 1.18213 3.41376
                CHANNELS 3 Zrotation Xrotation Yrotation
                JOINT lMid2
                {
                  OFFSET 3.10165 -0.590103 1.0647
                  CHANNELS 3 Zrotation Xrotation Yrotation
                  End Site
                  {
                    OFFSET 2.48547 -0.328903 0.83742
                  }
                }
              }
              JOINT lRing1
              {
                OFFSET 8.82822 0.546677 1.51678
                CHANNELS 3 Zrotation Xrotation Yrotation
                JOINT lRing2
                {
                  OFFSET 2.60934 -0.819778 -0.0198488
                  CHANNELS 3 Zrotation Xrotation Yrotation
                  End Site
                  {
                    OFFSET 2.33842 -0.294052 0.168128
                  }
                }
              }
              JOINT lPinky1
              {
                OFFSET 8.27202 -0.0477905 -0.4584
                CHANNELS 3 Zrotation Xrotation Yrotation
                JOINT lPinky2
                {
                  OFFSET 1.82734 -0.647385 -0.700984
                  CHANNELS 3 Zrotation Xrotation Yrotation
                  End Site
                  {
                    OFFSET 1.69225 -0.51767 -0.607171
                  }
                }
              }
            }
          }
        }
      }
    }
  }
  JOINT rButtock
  {
    OFFSET -8.77824 4.35084 1.2192
    CHANNELS 3 Zrotation Xrotation Yrotation
    JOINT rThigh
    {
      OFFSET 0 -1.70687 -2.19456
      CHANNELS 3 Zrotation Xrotation Yrotation
      JOINT rShin
      {
        OFFSET 0 -36.8199 0.73152
        CHANNELS 3 Zrotation Xrotation Yrotation
        JOINT rFoot
        {
          OFFSET 0.73152 -45.1104 -5.12064
          CHANNELS 3 Zrotation Xrotation Yrotation
          End Site
          {
            OFFSET -1.1221 -3.69964 12.103
          }
        }
      }
    }
  }
  JOINT lButtock
  {
    OFFSET 8.77824 4.35084 1.2192
    CHANNELS 3 Zrotation Xrotation Yrotation
    JOINT lThigh
    {
      OFFSET 0 -1.70687 -2.19456
      CHANNELS 3 Zrotation Xrotation Yrotation
      JOINT lShin
      {
        OFFSET 0 -36.8199 0.73152
        CHANNELS 3 Zrotation Xrotation Yrotation
        JOINT lFoot
        {
          OFFSET -0.73152 -45.1104 -5.12064
          CHANNELS 3 Zrotation Xrotation Yrotation
          End Site
          {
            OFFSET 1.1221 -3.69964 12.103
          }
        }
      }
    }
  }
}
MOTION
Frames:	9
Frame Time:	0.00833333
62.8619 20.3871 -37.8356 -192.343 -3.7767 89.7201 -13.5015 28.1532 10.4428 -1.6759 9.34441 3.92475 -2.74731 13.2124 -1.62143 3.49419 -3.92377 -0.443744 -0.0 0.0 0.0 -0.0 0.0 0.0 2.7197e-13 4.77054e-14 -3.35449e-13 39.734 17.1331 54.4784 -20.9121 -14.2039 40.9428 -0.0434737 -5.94021 -0.837876 -2.77844e-10 2.11723e-10 6.20256e-10 -4.85002e-10 3.63563e-10 1.07298e-09 -2.77837e-10 2.11741e-10 6.20253e-10 7.73091 5.47488 0.417314 -2.77851e-10 2.11727e-10 6.20265e-10 2.90554 0.965183 0.102902 -2.77835e-10 2.11727e-10 6.20257e-10 10.2786 0.731801 0.0259123 -2.77845e-10 2.11726e-10 6.20269e-10 2.22167 -0.733487 -0.20892 2.71873e-13 4.77103e-14 -3.35598e-13 -0.386938 22.1113 -67.4825 16.0362 -8.72086 -29.7491 0.0503777 6.39221 -0.90215 -2.07331e-10 4.29343e-10 1.37167e-09 -3.5292e-10 7.3905e-10 2.37566e-09 -2.07328e-10 4.29345e-10 1.37169e-09 -7.73091 5.47488 -0.417314 -2.0733e-10 4.29344e-10 1.37167e-09 -2.90554 0.965183 -0.102902 -2.07332e-10 4.29343e-10 1.37167e-09 -10.2786 0.731801 -0.0259123 -2.07329e-10 4.29343e-10 1.37167e-09 -2.22167 -0.733487 0.20892 -2.03217e-16 0.0 -3.88251e-19 168.989 -65.3805 157.551 -3.84763 45.4497 -19.1465 -174.573 0.264336 148.747 2.03217e-16 0.0 3.88251e-19 131.284 -62.3663 143.619 1.8259 40.5064 8.40099 177.456 0.129425 -174.242
62.3978 20.1295 -38.6312 -191.879 -5.1478 91.3665 -15.8645 28.3061 10.688 -0.947731 9.75192 3.90834 -2.71796 12.3379 -1.61724 3.0885 -2.95404 -0.435537 -0.0 0.0 0.0 -0.0 0.0 0.0 3.13937e-13 6.96722e-14 -3.87281e-13 40.495 18.0666 54.0823 -20.1566 -13.1588 39.2847 -0.061873 -7.26908 -1.02662 -1.30397e-09 -7.2747e-10 1.26651e-09 -2.26557e-09 -1.27915e-09 2.18629e-09 -1.30396e-09 -7.27456e-10 1.26651e-09 7.73091 5.47488 0.417314 -1.30398e-09 -7.27468e-10 1.26652e-09 2.90554 0.965183 0.102902 -1.30396e-09 -7.27468e-10 1.26652e-09 10.2786 0.731801 0.0259123 -1.30397e-09 -7.27469e-10 1.26653e-09 2.22167 -0.733487 -0.20892 3.13846e-13 6.96748e-14 -3.87447e-13 0.0679054 23.3598 -68.3085 15.0715 -7.78736 -27.9179 0.0425134 5.88752 -0.830358 1.28167e-09 -3.36385e-09 2.36456e-09 2.22565e-09 -5.80205e-09 4.08685e-09 1.28167e-09 -3.36385e-09 2.36458e-09 -7.73091 5.47488 -0.417314 1.28167e-09 -3.36385e-09 2.36456e-09 -2.90554 0.965183 -0.102902 1.28167e-09 -3.36385e-09 2.36456e-09 -10.2786 0.731801 -0.0259123 1.28167e-09 -3.36385e-09 2.36456e-09 -2.22167 -0.733487 0.20892 -2.03217e-16 0.0 -3.88251e-19 168.076 -66.8201 158.789 10.1869 19.3276 -46.5614 -172.752 1.21773 -179.373 2.03217e-16 0.0 3.88251e-19 126.228 -64.3541 140.66 1.57395 39.5226 7.26537 177.53 0.218665 -175.006
61.9654 19.8757 -39.4828 -191.51 -6.4494 93.0735 -18.2912 28.8577 10.8617 -0.249425 9.78063 3.85111 -2.37939 11.6738 -1.64853 2.60453 -2.11881 -0.474395 -0.0 0.0 0.0 -0.0 0.0 0.0 3.16776e-13 1.00187e-13 -3.64006e-13 41.3235 19.0893 53.3244 -19.6519 -12.5334 38.0424 -0.0924121 -8.86032 -1.25453 -2.9562e-09 -2.08611e-09 2.00712e-09 -5.13098e-09 -3.65604e-09 3.45968e-09 -2.9562e-09 -2.0861e-09 2.00712e-09 7.73091 5.47488 0.417314 -2.95621e-09 -2.08611e-09 2.00713e-09 2.90554 0.965183 0.102902 -2.9562e-09 -2.08611e-09 2.00713e-09 10.2786 0.731801 0.0259123 -2.95621e-09 -2.08611e-09 2.00714e-09 2.22167 -0.733487 -0.20892 3.16701e-13 1.00187e-13 -3.6422e-13 0.654312 24.7706 -68.975 14.4167 -7.23797 -26.5594 0.0348557 5.31004 -0.748416 3.48873e-09 -9.16494e-09 3.47856e-09 6.04649e-09 -1.58057e-08 6.00365e-09 3.48873e-09 -9.16494e-09 3.47856e-09 -7.73091 5.47488 -0.417314 3.48873e-09 -9.16494e-09 3.47855e-09 -2.90554 0.965183 -0.102902 3.48873e-09 -9.16494e-09 3.47856e-09 -10.2786 0.731801 -0.0259123 3.48873e-09 -9.16494e-09 3.47855e-09 -2.22167 -0.733487 0.20892 -2.03217e-16 0.0 -3.88251e-19 167.693 -68.4502 160.778 4.35671 -0.0972279 -85.5028 -171.667 1.70271 -131.184 2.03217e-16 0.0 3.88251e-19 120.587 -66.6808 137.055 1.39309 38.6978 6.16564 177.583 0.638822 -175.754
61.56 19.5152 -40.336 -191.322 -7.5657 95.1136 -20.4606 29.5483 10.935 0.357903 9.5988 3.76555 -1.96351 11.2199 -1.67213 2.20438 -1.63773 -0.51105 -0.0 0.0 0.0 -0.0 0.0 0.0 3.08048e-13 1.24341e-13 -3.16389e-13 42.084 20.1446 52.4257 -19.296 -12.1372 37.0607 -0.127013 -10.1996 -1.44855 -4.41505e-09 -3.1698e-09 2.59457e-09 -7.66079e-09 -5.55387e-09 4.4688e-09 -4.41504e-09 -3.1698e-09 2.59457e-09 7.73091 5.47488 0.417314 -4.41505e-09 -3.16981e-09 2.59457e-09 2.90554 0.965183 0.102902 -4.41504e-09 -3.16981e-09 2.59457e-09 10.2786 0.731801 0.0259123 -4.41505e-09 -3.16981e-09 2.59458e-09 2.22167 -0.733487 -0.20892 3.07986e-13 1.24338e-13 -3.16656e-13 1.17893 26.1631 -69.4387 13.9708 -6.91422 -25.5465 0.0271688 4.66445 -0.657007 5.42635e-09 -1.44459e-08 4.38932e-09 9.40035e-09 -2.49141e-08 7.56988e-09 5.42635e-09 -1.44459e-08 4.38931e-09 -7.73091 5.47488 -0.417314 5.42635e-09 -1.44459e-08 4.38931e-09 -2.90554 0.965183 -0.102902 5.42635e-09 -1.44459e-08 4.38932e-09 -10.2786 0.731801 -0.0259123 5.42635e-09 -1.44459e-08 4.38931e-09 -2.22167 -0.733487 0.20892 -2.03217e-16 0.0 -3.88251e-19 167.851 -69.9287 163.108 -7.98806 18.9852 -125.072 -175.287 -1.1981 -78.8447 2.03217e-16 0.0 3.88251e-19 114.971 -68.8926 133.181 1.26259 37.9825 5.34157 177.616 1.11402 -176.277
61.1795 19.0143 -41.2186 -191.325 -8.3896 97.6371 -22.0465 30.1182 10.8746 0.813352 9.3747 3.66428 -1.70067 10.9761 -1.6452 2.04773 -1.73043 -0.496297 -0.0 0.0 0.0 -0.0 0.0 0.0 3.15315e-13 1.27224e-13 -2.95195e-13 42.6266 21.1694 51.6112 -18.9554 -11.7519 36.2002 -0.144496 -10.7731 -1.53235 -4.86101e-09 -3.28415e-09 2.78134e-09 -8.43461e-09 -5.75941e-09 4.78932e-09 -4.861e-09 -3.28415e-09 2.78133e-09 7.73091 5.47488 0.417314 -4.86101e-09 -3.28416e-09 2.78134e-09 2.90554 0.965183 0.102902 -4.861e-09 -3.28415e-09 2.78134e-09 10.2786 0.731801 0.0259123 -4.86102e-09 -3.28415e-09 2.78135e-09 2.22167 -0.733487 -0.20892 3.1525e-13 1.27219e-13 -2.95493e-13 1.4321 27.3495 -69.6063 13.6041 -6.6394 -24.7609 0.0192273 3.95546 -0.556798 6.10702e-09 -1.66789e-08 4.77251e-09 1.0578e-08 -2.87695e-08 8.22935e-09 6.10702e-09 -1.66789e-08 4.7725e-09 -7.73091 5.47488 -0.417314 6.10702e-09 -1.66789e-08 4.7725e-09 -2.90554 0.965183 -0.102902 6.10701e-09 -1.66789e-08 4.77251e-09 -10.2786 0.731801 -0.0259123 6.10702e-09 -1.66789e-08 4.77251e-09 -2.22167 -0.733487 0.20892 -2.03217e-16 0.0 -3.88251e-19 168.279 -70.9353 165.115 -6.40881 52.0519 -153.134 177.373 -11.3375 -34.8638 2.03217e-16 0.0 3.88251e-19 110.507 -70.6047 129.948 1.1706 37.333 5.02854 177.612 1.36727 -176.364
60.8361 18.3905 -42.1824 -191.447 -8.8205 100.599 -23.124 30.3616 10.6506 1.13551 9.15741 3.52448 -1.66664 11.0583 -1.52623 2.26178 -2.69617 -0.374041 -0.0 0.0 0.0 -0.0 0.0 0.0 3.56867e-13 8.90573e-14 -3.17879e-13 42.8869 22.2004 50.8665 -18.6399 -11.3818 35.5022 -0.124334 -10.1333 -1.4388 -3.62792e-09 -2.07222e-09 2.29184e-09 -6.29751e-09 -3.64619e-09 3.94714e-09 -3.62792e-09 -2.07223e-09 2.29184e-09 7.73091 5.47488 0.417314 -3.62792e-09 -2.07223e-09 2.29185e-09 2.90554 0.965183 0.102902 -3.62792e-09 -2.07222e-09 2.29185e-09 10.2786 0.731801 0.0259123 -3.62793e-09 -2.07222e-09 2.29186e-09 2.22167 -0.733487 -0.20892 3.56767e-13 8.90528e-14 -3.18181e-13 1.26658 28.3388 -69.2653 13.3583 -6.43673 -24.2955 0.00954814 3.03161 -0.426415 4.67973e-09 -1.13027e-08 4.3066e-09 8.10595e-09 -1.95006e-08 7.42977e-09 4.67973e-09 -1.13027e-08 4.3066e-09 -7.73091 5.47488 -0.417314 4.67973e-09 -1.13027e-08 4.30659e-09 -2.90554 0.965183 -0.102902 4.67973e-09 -1.13027e-08 4.3066e-09 -10.2786 0.731801 -0.0259123 4.67973e-09 -1.13027e-08 4.3066e-09 -2.22167 -0.733487 0.20892 -2.03217e-16 0.0 -3.88251e-19 168.719 -71.1826 166.587 16.6704 71.7314 151.547 170.413 -29.6595 6.58992 2.03217e-16 0.0 3.88251e-19 108.263 -71.7867 128.526 1.17214 36.7194 5.48659 177.529 1.34277 -175.744
60.6028 17.6942 -43.1188 -191.455 -8.8173 103.665 -23.8103 30.462 10.2858 1.3437 8.85564 3.3485 -1.73552 11.428 -1.34767 2.74138 -4.33762 -0.184615 -0.0 0.0 0.0 -0.0 0.0 0.0 4.14356e-13 2.306e-14 -3.56061e-13 42.9552 23.2518 50.0937 -18.4238 -11.1397 35.0082 -0.0858075 -8.65752 -1.2251 -1.30206e-09 3.83981e-11 1.32795e-09 -2.26575e-09 3.77309e-11 2.28887e-09 -1.30206e-09 3.83843e-11 1.32795e-09 7.73091 5.47488 0.417314 -1.30206e-09 3.83847e-11 1.32796e-09 2.90554 0.965183 0.102902 -1.30205e-09 3.83938e-11 1.32796e-09 10.2786 0.731801 0.0259123 -1.30207e-09 3.83943e-11 1.32797e-09 2.22167 -0.733487 -0.20892 4.142e-13 2.30569e-14 -3.56353e-13 0.785955 29.2116 -68.4555 13.2948 -6.38824 -24.1684 0.00188779 1.94127 -0.272857 1.86705e-09 -9.61452e-10 3.24292e-09 3.23505e-09 -1.66789e-09 5.60243e-09 1.86704e-09 -9.61442e-10 3.24293e-09 -7.73091 5.47488 -0.417314 1.86704e-09 -9.61444e-10 3.24292e-09 -2.90554 0.965183 -0.102902 1.86704e-09 -9.61453e-10 3.24292e-09 -10.2786 0.731801 -0.0259123 1.86704e-09 -9.61451e-10 3.24292e-09 -2.22167 -0.733487 0.20892 -2.03217e-16 0.0 -3.88251e-19 169.144 -70.9188 167.677 37.0022 61.5414 90.129 -177.314 -33.9119 58.4989 2.03217e-16 0.0 3.88251e-19 107.953 -72.7006 128.697 1.29464 36.1706 6.49911 177.388 1.1819 -174.6
60.4811 17.0448 -43.9456 -191.259 -8.3977 106.315 -23.8365 30.7443 9.82195 1.37911 8.42724 3.18646 -1.83308 11.853 -1.17817 3.28961 -6.12944 -0.0234495 -0.0 0.0 0.0 -0.0 0.0 0.0 4.60394e-13 -3.61787e-14 -3.91751e-13 42.8948 24.2197 49.3951 -18.2471 -10.9505 34.5893 -0.0568813 -7.06998 -0.99805 1.05741e-09 2.56529e-09 3.58331e-10 1.82428e-09 4.44388e-09 6.21287e-10 1.05741e-09 2.56527e-09 3.58334e-10 7.73091 5.47488 0.417314 1.05741e-09 2.56527e-09 3.58337e-10 2.90554 0.965183 0.102902 1.05742e-09 2.56529e-09 3.58343e-10 10.2786 0.731801 0.0259123 1.0574e-09 2.56529e-09 3.58356e-10 2.22167 -0.733487 -0.20892 4.60188e-13 -3.61802e-14 -3.92024e-13 0.165104 29.8766 -67.4537 13.2938 -6.39382 -24.153 -0.000496624 0.988953 -0.138958 -9.58188e-10 6.06574e-09 2.11642e-09 -1.65756e-09 1.04384e-08 3.66652e-09 -9.58195e-10 6.06575e-09 2.11643e-09 -7.73091 5.47488 -0.417314 -9.58193e-10 6.06575e-09 2.11641e-09 -2.90554 0.965183 -0.102902 -9.58193e-10 6.06574e-09 2.11642e-09 -10.2786 0.731801 -0.0259123 -9.58187e-10 6.06574e-09 2.11641e-09 -2.22167 -0.733487 0.20892 -2.03217e-16 0.0 -3.88251e-19 169.545 -70.6531 168.179 16.0828 47.5214 76.9415 -172.093 -15.0792 85.0309 2.03217e-16 0.0 3.88251e-19 108.891 -73.4237 129.528 1.46722 35.7358 7.59767 177.266 0.903776 -173.408
60.4456 16.4384 -44.6594 -191.023 -7.4872 108.581 -22.9218 31.5347 9.29611 1.18398 7.8302 3.08841 -1.88078 12.1012 -1.08706 3.69288 -7.54634 0.0129324 -0.0 0.0 0.0 -0.0 0.0 0.0 4.67593e-13 -5.40698e-14 -4.06962e-13 42.7599 24.9958 48.8723 -18.0438 -10.7338 34.1185 -0.0457869 -6.09547 -0.859941 2.39132e-09 5.02606e-09 -1.48357e-10 4.1362e-09 8.72374e-09 -2.48859e-10 2.39132e-09 5.02604e-09 -1.48354e-10 7.73091 5.47488 0.417314 2.39132e-09 5.02604e-09 -1.48351e-10 2.90554 0.965183 0.102902 2.39133e-09 5.02606e-09 -1.48345e-10 10.2786 0.731801 0.0259123 2.39131e-09 5.02606e-09 -1.48332e-10 2.22167 -0.733487 -0.20892 4.67371e-13 -5.40704e-14 -4.0721e-13 -0.401398 30.2602 -66.5713 13.2331 -6.35196 -24.0235 0.000281629 0.479191 -0.0673474 -2.42311e-09 1.49957e-09 1.46202e-09 -4.19474e-09 2.52828e-09 2.54123e-09 -2.42312e-09 1.49958e-09 1.46204e-09 -7.73091 5.47488 -0.417314 -2.42311e-09 1.49957e-09 1.46202e-09 -2.90554 0.965183 -0.102902 -2.42311e-09 1.49957e-09 1.46203e-09 -10.2786 0.731801 -0.0259123 -2.42311e-09 1.49957e-09 1.46202e-09 -2.22167 -0.733487 0.20892 -2.03217e-16 0.0 -3.88251e-19 169.999 -70.8927 167.973 7.99312 43.1281 73.0794 -171.935 -6.61496 88.9958 2.03217e-16 0.0 3.88251e-19 110.153 -74.0319 129.844 1.59532 35.4769 8.32835 177.231 0.527725 -172.644
